<svg xmlns="http://www.w3.org/2000/svg" width="200" height="28" viewBox="0 0 200 28">
  <g id="Subtraction_120" data-name="Subtraction 120" transform="translate(-2)" fill="#fff">
    <path d="M 201.5001983642578 27.49989891052246 L 2.499799966812134 27.49989891052246 L 2.499799966812134 23.49457931518555 C 3.080728530883789 23.44715690612793 3.630598783493042 23.11172485351562 4.026175022125244 22.55789947509766 C 4.423900127410889 22.00104904174805 4.642950057983398 21.27029991149902 4.642950057983398 20.50020027160645 C 4.642950057983398 19.73009872436523 4.423900127410889 18.99934959411621 4.026175022125244 18.4424991607666 C 3.630598783493042 17.88867378234863 3.080728530883789 17.55324172973633 2.499799966812134 17.50581932067871 L 2.499799966812134 16.4943790435791 C 3.080728530883789 16.44695663452148 3.630598783493042 16.11152458190918 4.026175022125244 15.55769920349121 C 4.423900127410889 15.00084972381592 4.642950057983398 14.27009963989258 4.642950057983398 13.49999904632568 C 4.642950057983398 12.72989940643311 4.423900127410889 11.99914932250977 4.026175022125244 11.44229984283447 C 3.630598783493042 10.8884744644165 3.080728530883789 10.5530424118042 2.499799966812134 10.50562000274658 L 2.499799966812134 9.494179725646973 C 3.080728530883789 9.446757316589355 3.630598783493042 9.111324310302734 4.026175022125244 8.557499885559082 C 4.423900127410889 8.000649452209473 4.642950057983398 7.269899368286133 4.642950057983398 6.499799251556396 C 4.642950057983398 5.729699611663818 4.423900127410889 4.998949527740479 4.026175022125244 4.442099571228027 C 3.630598783493042 3.888274192810059 3.080728530883789 3.552842378616333 2.499799966812134 3.505420207977295 L 2.499799966812134 0.499999463558197 L 201.5001983642578 0.499999463558197 L 201.5001983642578 3.505422115325928 C 200.9192657470703 3.552844524383545 200.3694305419922 3.888274192810059 199.9738311767578 4.442099571228027 C 199.5760955810547 4.998949527740479 199.3570556640625 5.729699611663818 199.3570556640625 6.499799251556396 C 199.3570556640625 7.269899368286133 199.5760955810547 8.000649452209473 199.9738311767578 8.557499885559082 C 200.3694305419922 9.111324310302734 200.9192657470703 9.446755409240723 201.5001983642578 9.494176864624023 L 201.5001983642578 10.50562191009521 C 200.9192657470703 10.55304431915283 200.3694305419922 10.8884744644165 199.9738311767578 11.44229984283447 C 199.5760955810547 11.99914932250977 199.3570556640625 12.72989940643311 199.3570556640625 13.49999904632568 C 199.3570556640625 14.27009963989258 199.5760955810547 15.00084972381592 199.9738311767578 15.55769920349121 C 200.3694305419922 16.11152458190918 200.9192657470703 16.44695472717285 201.5001983642578 16.49437713623047 L 201.5001983642578 17.50582122802734 C 200.9192657470703 17.55324363708496 200.3694305419922 17.88867378234863 199.9738311767578 18.4424991607666 C 199.5760955810547 18.99934959411621 199.3570556640625 19.73009872436523 199.3570556640625 20.50020027160645 C 199.3570556640625 21.27029991149902 199.5760955810547 22.00104904174805 199.9738311767578 22.55789947509766 C 200.3694305419922 23.11172485351562 200.9192657470703 23.4471549987793 201.5001983642578 23.49457740783691 L 201.5001983642578 27.49989891052246 Z" stroke="none"/>
    <path d="M 201.0002136230469 26.99989700317383 L 201.0002136230469 23.90776062011719 C 200.4487915039062 23.74645233154297 199.9463653564453 23.37967681884766 199.5669708251953 22.8485279083252 C 199.1091766357422 22.20760726928711 198.8570556640625 21.37363433837891 198.8570556640625 20.50021171569824 C 198.8570556640625 19.62679100036621 199.1091766357422 18.79281806945801 199.5669708251953 18.15189743041992 C 199.9463653564453 17.62072944641113 200.4487915039062 17.25394821166992 201.0002136230469 17.09263801574707 L 201.0002136230469 16.9075756072998 C 200.4487915039062 16.74626731872559 199.9463653564453 16.37948417663574 199.5669708251953 15.84831809997559 C 199.1091766357422 15.20739650726318 198.8570556640625 14.37342357635498 198.8570556640625 13.50000190734863 C 198.8570556640625 12.6265811920166 199.1091766357422 11.79260730743408 199.5669708251953 11.151686668396 C 199.9463653564453 10.62051963806152 200.4487915039062 10.253737449646 201.0002136230469 10.09242820739746 L 201.0002136230469 9.907365798950195 C 200.4487915039062 9.74605655670166 199.9463653564453 9.379274368286133 199.5669708251953 8.84810733795166 C 199.1091766357422 8.207186698913574 198.8570556640625 7.373212814331055 198.8570556640625 6.499791622161865 C 198.8570556640625 5.626370429992676 199.1091766357422 4.792397022247314 199.5669708251953 4.15147590637207 C 199.9463653564453 3.620327711105347 200.4487915039062 3.253551483154297 201.0002136230469 3.092243432998657 L 201.0002136230469 1.000002145767212 L 2.999815702438354 1.000002145767212 L 2.999815702438354 3.09224534034729 C 3.551235437393188 3.253554821014404 4.053647518157959 3.620335102081299 4.433052539825439 4.151502132415771 C 4.890841960906982 4.792397022247314 5.142947196960449 5.626370429992676 5.142947196960449 6.499791622161865 C 5.142947196960449 7.373212814331055 4.890841960906982 8.207186698913574 4.433052539825439 8.84810733795166 C 4.053666591644287 9.379274368286133 3.551241636276245 9.74605655670166 2.999815702438354 9.907365798950195 L 2.999815702438354 10.09242820739746 C 3.551241636276245 10.253737449646 4.053666591644287 10.62051963806152 4.433052539825439 11.151686668396 C 4.890841960906982 11.79260730743408 5.142947196960449 12.6265811920166 5.142947196960449 13.50000190734863 C 5.142947196960449 14.37342357635498 4.890841960906982 15.20739650726318 4.433052539825439 15.84831809997559 C 4.053666591644287 16.37948417663574 3.551241636276245 16.74626731872559 2.999815702438354 16.9075756072998 L 2.999815702438354 17.09263801574707 C 3.551241636276245 17.25394821166992 4.053666591644287 17.62072944641113 4.433052539825439 18.15189743041992 C 4.890841960906982 18.79281806945801 5.142947196960449 19.62679100036621 5.142947196960449 20.50021171569824 C 5.142947196960449 21.37363433837891 4.890841960906982 22.20760726928711 4.433052539825439 22.84850120544434 C 4.053647518157959 23.37966918945312 3.551235437393188 23.7464485168457 2.999815702438354 23.90775871276855 L 2.999815702438354 26.99989700317383 L 201.0002136230469 26.99989700317383 M 202.0002136230469 27.99989700317383 L 1.999815821647644 27.99989700317383 L 1.999815821647644 22.95026588439941 C 2.115578889846802 22.98321342468262 2.235394716262817 23.00039672851562 2.357131481170654 23.00039672851562 C 3.341842174530029 23.00039672851562 4.142947196960449 21.87881851196289 4.142947196960449 20.50021171569824 C 4.142947196960449 19.12158012390137 3.341842174530029 18.00000190734863 2.357131481170654 18.00000190734863 C 2.236921072006226 18.00000190734863 2.116710424423218 18.01684379577637 1.999815821647644 18.05013275146484 L 1.999815821647644 15.95008087158203 C 2.115578889846802 15.98302841186523 2.235394716262817 16.00021171569824 2.357131481170654 16.00021171569824 C 3.341842174530029 16.00021171569824 4.142947196960449 14.87863349914551 4.142947196960449 13.50000190734863 C 4.142947196960449 12.12137031555176 3.341842174530029 10.99979114532471 2.357131481170654 10.99979114532471 C 2.236921072006226 10.99979114532471 2.116710424423218 11.0166597366333 1.999815821647644 11.04992294311523 L 1.999815821647644 8.949870109558105 C 2.115578889846802 8.982817649841309 2.235394716262817 9.000001907348633 2.357131481170654 9.000001907348633 C 3.341842174530029 9.000001907348633 4.142947196960449 7.87842321395874 4.142947196960449 6.499791622161865 C 4.142947196960449 5.121186256408691 3.341842174530029 3.99960732460022 2.357131481170654 3.99960732460022 C 2.236921072006226 3.99960732460022 2.116710424423218 4.016449451446533 1.999815821647644 4.049712657928467 L 1.999815821647644 2.086840140691493e-06 L 202.0002136230469 2.086840140691493e-06 L 202.0002136230469 4.049712657928467 C 201.8844146728516 4.016765117645264 201.7646331787109 3.99960732460022 201.6428985595703 3.99960732460022 C 200.6581878662109 3.99960732460022 199.8570556640625 5.121186256408691 199.8570556640625 6.499791622161865 C 199.8570556640625 7.87842321395874 200.6581878662109 9.000001907348633 201.6428985595703 9.000001907348633 C 201.7630767822266 9.000001907348633 201.8833160400391 8.983160018920898 202.0002136230469 8.949870109558105 L 202.0002136230469 11.04992294311523 C 201.8844146728516 11.01697540283203 201.7646331787109 10.99979114532471 201.6428985595703 10.99979114532471 C 200.6581878662109 10.99979114532471 199.8570556640625 12.12137031555176 199.8570556640625 13.50000190734863 C 199.8570556640625 14.87863349914551 200.6581878662109 16.00021171569824 201.6428985595703 16.00021171569824 C 201.7630767822266 16.00021171569824 201.8833160400391 15.98334407806396 202.0002136230469 15.95008087158203 L 202.0002136230469 18.05013275146484 C 201.8844146728516 18.01718711853027 201.7646331787109 18.00000190734863 201.6428985595703 18.00000190734863 C 200.6581878662109 18.00000190734863 199.8570556640625 19.12158012390137 199.8570556640625 20.50021171569824 C 199.8570556640625 21.87881851196289 200.6581878662109 23.00039672851562 201.6428985595703 23.00039672851562 C 201.7630767822266 23.00039672851562 201.8833160400391 22.98355484008789 202.0002136230469 22.95026588439941 L 202.0002136230469 27.99889755249023 L 202.0002136230469 27.99989700317383 Z" stroke="none" fill="#f54b24"/>
  </g>
</svg>
