<svg xmlns="http://www.w3.org/2000/svg" width="160.001" height="122" viewBox="0 0 160.001 122">
  <g id="Group_30109" data-name="Group 30109" transform="translate(2931 -12286)">
    <g id="img-no-question-answer" transform="translate(-2931 12285.999)">
      <g id="Group_28265" data-name="Group 28265" transform="translate(0)">
        <path id="Path_30434" data-name="Path 30434" d="M337.357,149.842q-.29,1.176-.643,2.332c-.071.224-.14.449-.213.672a60.078,60.078,0,0,1-3.372,8.167c-.684,1.386-1.408,2.752-2.153,4.1q-.6,1.077-1.209,2.144c-2.013,3.513-4.035,8.835-7.975,10.662-2.694,1.248-7.4.223-10.254.348-6.125.273-12.021.155-17.962.035l-.615-.012c-3.818-.078-7.657-.151-11.593-.118-9.3.079-17.87-.079-27.174-.056-5.809.016-11.97-.664-17.779-.66-5.206,0-15.525,2.013-20.189,0-8.606-3.724-14.79-7.169-13.948-17.718.408-5.09,1.921-10.385.189-15.39-1.124-3.246-3.214-5.8-5.4-8.347-.126-.145-.251-.29-.375-.437-.669-.774-1.341-1.552-1.992-2.353a85.393,85.393,0,0,1-7.213-10.188c-.095-.161-.191-.323-.286-.486a43.366,43.366,0,0,1-6.237-18.4,31.528,31.528,0,0,1-.045-4.053q.018-.346.047-.691a27.539,27.539,0,0,1,2.041-8.338c.093-.221.187-.441.284-.66a39.4,39.4,0,0,1,12.662-15.233c.191-.143.384-.285.578-.424q.84-.607,1.7-1.173,2.479-1.632,5.212-3.1,2.041-1.1,4.2-2.084a82.074,82.074,0,0,1,29.577-7.269q1.813-.09,3.621-.089c9.2.008,18.185,1.829,25.882,5.984q1.568.848,3.065,1.825a39.527,39.527,0,0,1,9.97,9.329,61.084,61.084,0,0,1,3.836,5.821c.1.165.193.329.288.494,3.473,5.986,6.3,12.35,10.4,17.968.124.168.248.337.373.5s.246.32.371.476c5.342,6.755,12.542,10.1,20.735,12.861l.108.037c.187.062.373.126.56.19h0c4.569,1.537,9.5,3.271,13.473,6.124a20.55,20.55,0,0,1,3.654,3.306,17.519,17.519,0,0,1,1.122,1.453,20.133,20.133,0,0,1,2.642,5.512c.069.223.134.445.2.672A32.926,32.926,0,0,1,337.357,149.842Z" transform="translate(-180.872 -61.026)" fill="#f4f5f6"/>
        <path id="Path_30457" data-name="Path 30457" d="M781.2,183.207l.084.145c3.242,5.537,7.909,10.576,13.884,13.212,3.629,1.6,10.479,3.816,12.131-1.469,3.162-10.115-12.392-27.747-21.7-28.093C775.793,166.638,777.945,177.532,781.2,183.207Z" transform="translate(-666.895 -147.581)" fill="#f4f5f6"/>
        <path id="Path_30447" data-name="Path 30447" d="M223.011,483.881c.783,2.009,1.871,5.879,3.9,7.657,4.491,3.94,7.974-.679,7.065-5.755-.617-3.445-4.76-9.965-8.388-10.564C217.628,473.906,222.706,482.373,223.011,483.881Z" transform="translate(-213.594 -399.229)" fill="#f4f5f6"/>
        <rect id="Rectangle_14900" data-name="Rectangle 14900" width="123.279" height="1.008" rx="0.504" transform="translate(18.487 116.959)" fill="#666"/>
        <rect id="Rectangle_14901" data-name="Rectangle 14901" width="41.093" height="1.008" rx="0.504" transform="translate(34.925 120.992)" fill="#666"/>
        <rect id="Rectangle_14902" data-name="Rectangle 14902" width="20.547" height="1.008" rx="0.504" transform="translate(89.373 120.992)" fill="#666"/>
      </g>
    </g>
    <g id="Group_28519" data-name="Group 28519" transform="translate(-2804.05 12315.628)">
      <g id="Group_28504" data-name="Group 28504" transform="translate(0)">
        <g id="Group_28503" data-name="Group 28503">
          <path id="Path_30556" data-name="Path 30556" d="M391.793,223.063c.645-1.844-3.706-2.193-4.249-.542-.451,1.369,1.642,1.634,2.43,1.962,1,.414,1.617,1.923-.051,1.887-.491-.01-2.79-.824-1.84-1.641l-.582.234.214-.037c.423-.072.951-.515.2-.387-1.021.174-1.523.973-.492,1.65a3.929,3.929,0,0,0,3.788.3c1.246-.647.925-1.9-.266-2.395-.756-.312-2.1-.336-2.343-1.312-.325-1.276,2.622-.907,2.141.47-.067.19.956.083,1.051-.188Z" transform="translate(-386.855 -221.46)" fill="#666"/>
        </g>
      </g>
      <g id="Group_28506" data-name="Group 28506" transform="translate(4.976 0.461)">
        <g id="Group_28505" data-name="Group 28505">
          <path id="Path_30557" data-name="Path 30557" d="M393.556,227.2l2.887-4.927-1.025.146a37.1,37.1,0,0,1,.011,5.528c-.022.389,1.043.17,1.061-.149a37.977,37.977,0,0,0-.007-5.663c-.031-.334-.925-.024-1.024.146l-2.887,4.927c-.233.4.823.267.984-.008Z" transform="translate(-392.539 -221.989)" fill="#666"/>
        </g>
      </g>
      <g id="Group_28508" data-name="Group 28508" transform="translate(5.466 3.631)">
        <g id="Group_28507" data-name="Group 28507">
          <path id="Path_30558" data-name="Path 30558" d="M393.288,226.176a11.5,11.5,0,0,1,2.407.491.959.959,0,0,0,.752-.107c.114-.069.351-.3.1-.383a12.438,12.438,0,0,0-2.6-.546.983.983,0,0,0-.753.2c-.134.138-.155.319.092.342Z" transform="translate(-393.098 -225.626)" fill="#666"/>
        </g>
      </g>
      <g id="Group_28510" data-name="Group 28510" transform="translate(9.609 1.199)">
        <g id="Group_28509" data-name="Group 28509">
          <path id="Path_30559" data-name="Path 30559" d="M398.678,223.248q-.313,2.46-.843,4.88a.275.275,0,0,0,.225.292l2.859.608c.426.091,1.261-.544.625-.679l-2.859-.607.226.292q.531-2.423.843-4.881c.065-.51-1.019-.353-1.076.1Z" transform="translate(-397.831 -222.835)" fill="#666"/>
        </g>
      </g>
      <g id="Group_28512" data-name="Group 28512" transform="translate(14.037 2.285)">
        <g id="Group_28511" data-name="Group 28511">
          <path id="Path_30560" data-name="Path 30560" d="M403.873,224.441q-.49,2.3-.981,4.592c-.084.392.988.225,1.065-.135q.49-2.3.981-4.592c.084-.392-.988-.225-1.065.134Z" transform="translate(-402.888 -224.081)" fill="#666"/>
        </g>
      </g>
      <g id="Group_28514" data-name="Group 28514" transform="translate(14.572 4.389)">
        <g id="Group_28513" data-name="Group 28513">
          <path id="Path_30561" data-name="Path 30561" d="M403.83,227.259l1.978.406c.513.105,1.079-.608.374-.753l-1.978-.406c-.513-.105-1.079.608-.374.753Z" transform="translate(-403.499 -226.496)" fill="#666"/>
        </g>
      </g>
      <g id="Group_28516" data-name="Group 28516" transform="translate(13.884 6.936)">
        <g id="Group_28515" data-name="Group 28515">
          <path id="Path_30562" data-name="Path 30562" d="M402.928,230.116l3.034.638a.781.781,0,0,0,.753-.2c.134-.169.129-.422-.128-.476l-3.034-.638a.782.782,0,0,0-.754.2c-.134.169-.129.422.129.476Z" transform="translate(-402.713 -229.419)" fill="#666"/>
        </g>
      </g>
      <g id="Group_28518" data-name="Group 28518" transform="translate(15.119 2.237)">
        <g id="Group_28517" data-name="Group 28517">
          <path id="Path_30563" data-name="Path 30563" d="M404.339,224.725l3.034.638a.785.785,0,0,0,.754-.2c.134-.169.129-.422-.128-.476l-3.035-.638a.783.783,0,0,0-.754.2c-.134.169-.129.422.129.476Z" transform="translate(-404.124 -224.027)" fill="#666"/>
        </g>
      </g>
    </g>
    <g id="Group_28525" data-name="Group 28525" transform="translate(-2916.116 12319.985)">
      <g id="Group_28521" data-name="Group 28521" transform="translate(0 1.327)">
        <g id="Group_28520" data-name="Group 28520">
          <path id="Path_30564" data-name="Path 30564" d="M489.265,244.759l-9.913,3.1.453.255q-.935-2.954-1.868-5.91l-.257.451,7.622-2.387,1.754-.549a1.442,1.442,0,0,0,.438-.138c.125-.121-.153-.158-.078,0s.6.4.756.5l1.029.681,1.438.952-.169-.413q-.732,1.852-1.462,3.705c-.173.438.537.628.709.194q.732-1.852,1.462-3.705a.368.368,0,0,0-.169-.413l-1.438-.952a13.886,13.886,0,0,0-1.814-1.2c-.626-.28-1.754.348-2.358.537l-7.916,2.479a.371.371,0,0,0-.257.451q.934,2.954,1.868,5.909a.373.373,0,0,0,.452.256l9.913-3.1C489.911,245.324,489.719,244.618,489.265,244.759Z" transform="translate(-477.213 -238.867)" fill="#666"/>
        </g>
      </g>
      <g id="Group_28522" data-name="Group 28522" transform="translate(10.216 4.002)">
        <path id="Path_30565" data-name="Path 30565" d="M489.6,243.365a.714.714,0,1,1,.685-.929h0a.717.717,0,0,1-.685.928Zm.334-.819-.35.111a.019.019,0,0,0,.022.011Z" transform="translate(-488.881 -241.937)" fill="#666"/>
      </g>
      <g id="Group_28524" data-name="Group 28524" transform="translate(10.53 0)">
        <g id="Group_28523" data-name="Group 28523">
          <path id="Path_30566" data-name="Path 30566" d="M490.246,242.033a20.265,20.265,0,0,1,1.831-1.884c1.025-.938,3.036-2.816,4.579-2.184a1.228,1.228,0,0,1,.507,1.9c-.96,1.586-3.32,1.9-4.976,2.021-.307.023-1.151.52-.45.469,2.018-.149,4.459-.538,5.968-2.03.783-.774,1.223-2.091.025-2.711-1.457-.754-3.392.194-4.61.987a18.046,18.046,0,0,0-3.846,3.481c-.235.278.792.157.971-.055Z" transform="translate(-489.24 -237.344)" fill="#666"/>
        </g>
      </g>
    </g>
    <g id="Group_28532" data-name="Group 28532" transform="translate(-2871.465 12299.072)">
      <g id="Group_28527" data-name="Group 28527" transform="translate(0 0)">
        <g id="Group_28526" data-name="Group 28526">
          <path id="Path_30567" data-name="Path 30567" d="M193.417,231.739l8.461-7.639c.232-.209-.762-.517-1.016-.288l-8.461,7.639c-.232.209.762.517,1.016.288Z" transform="translate(-192.366 -223.731)" fill="#666"/>
        </g>
      </g>
      <g id="Group_28529" data-name="Group 28529" transform="translate(0.166 0.169)">
        <g id="Group_28528" data-name="Group 28528">
          <path id="Path_30568" data-name="Path 30568" d="M193.906,224.483c-.995.592-1.919,1.874-.92,2.88.924.932,2.665.454,3.533-.3,1-.871,1.1-2.45-.312-2.987-1.175-.446-3.052.145-3.259,1.444-.05.316.972.051,1.022-.268a1.347,1.347,0,0,1,.83-.754,1.278,1.278,0,0,1,.531.09,1.446,1.446,0,0,1,.787.63,1.462,1.462,0,0,1-.622,1.925c-1.643.805-2.585-1.5-1.147-2.358.622-.37-.025-.549-.444-.3Z" transform="translate(-192.556 -223.925)" fill="#666"/>
        </g>
      </g>
      <g id="Group_28531" data-name="Group 28531" transform="translate(4.533 4.178)">
        <g id="Group_28530" data-name="Group 28530">
          <path id="Path_30569" data-name="Path 30569" d="M198.007,229.661c-.947.823-.285,2.171.585,2.79a2.261,2.261,0,0,0,3.136-.764,2.079,2.079,0,0,0-.917-2.958,2.186,2.186,0,0,0-2.988,1.624c-.055.28.7.9.731.721a2.184,2.184,0,0,1,1.41-1.619c.393-.134,1.152-.211,1.337.275a1.542,1.542,0,0,1-.2,1.056,2.36,2.36,0,0,1-1.718,1.188c-.418.055-.907,0-1.073-.4a1.059,1.059,0,0,1,.379-1.1c.2-.173-.5-.961-.681-.806Z" transform="translate(-197.544 -228.526)" fill="#666"/>
        </g>
      </g>
    </g>
    <g id="Group_28545" data-name="Group 28545" transform="translate(-2810.829 12350.911)">
      <g id="Group_28533" data-name="Group 28533" transform="translate(19.723 7.001)">
        <path id="Path_35830" data-name="Path 35830" d="M0,0,4.093.008l.044,22.129L.044,22.129Z" transform="translate(0 3.248) rotate(-52.648)" fill="#36b1ba"/>
      </g>
      <g id="Group_28534" data-name="Group 28534" transform="translate(10.503 0)">
        <path id="Path_35831" data-name="Path 35831" d="M0,0,11.581-.023,11.573,4.06-.008,4.083Z" transform="matrix(0.795, 0.607, -0.607, 0.795, 2.484, 0)" fill="#30aeb7"/>
      </g>
      <g id="Group_28535" data-name="Group 28535" transform="translate(0.004 3.243)">
        <path id="Path_35832" data-name="Path 35832" d="M0,0,33.705-.066,33.671,17.19l-33.705.066Z" transform="matrix(0.795, 0.607, -0.607, 0.795, 10.497, 0)" fill="#f54b24"/>
      </g>
      <g id="Group_28536" data-name="Group 28536" transform="translate(0 3.243)">
        <path id="Path_35833" data-name="Path 35833" d="M0,0,11.578-.023,11.543,17.24l-11.578.023Z" transform="translate(10.5 0) rotate(37.351)" fill="#ff5e4d"/>
      </g>
      <g id="Group_28537" data-name="Group 28537" transform="translate(10.503 0)">
        <path id="Path_35834" data-name="Path 35834" d="M0,0,11.581-.023,11.573,4.06-.008,4.083Z" transform="matrix(0.795, 0.607, -0.607, 0.795, 2.484, 0)" fill="#f54b24"/>
      </g>
      <g id="Group_28538" data-name="Group 28538" transform="translate(19.728 7.006)">
        <path id="Path_35835" data-name="Path 35835" d="M0,0,22.126-.044l-.008,4.08L-.008,4.08Z" transform="matrix(0.795, 0.607, -0.607, 0.795, 2.482, 0)" fill="#ff5e4d"/>
      </g>
      <g id="Group_28541" data-name="Group 28541" transform="translate(6.12 8.073)">
        <g id="Group_28539" data-name="Group 28539" transform="translate(23.368 1.168)">
          <path id="Path_30570" data-name="Path 30570" d="M936.336,200.23c-.009-.1.08.065,0,0Z" transform="translate(-936.335 -200.197)" fill="#2f6bff"/>
        </g>
        <g id="Group_28540" data-name="Group 28540" transform="translate(0)">
          <path id="Path_30571" data-name="Path 30571" d="M841.78,195.433a.385.385,0,0,1,.284.081l17.952,13.707,6.366-8.123c.252-.312.834.182.615.468l-6.372,8.131,8.339,6.278a.386.386,0,0,1-.479.605l-8.338-6.277-6.217,8.015a.389.389,0,0,1-.451.116.405.405,0,0,1-.1-.057.545.545,0,0,1-.085-.1.385.385,0,0,1,.026-.439l6.216-8.013-17.957-13.712a.53.53,0,0,1-.087-.1.385.385,0,0,1,.287-.583Z" transform="translate(-841.437 -195.431)" fill="#2f6bff"/>
        </g>
      </g>
      <g id="Group_28544" data-name="Group 28544" transform="translate(22.585 4.272)">
        <g id="Group_28542" data-name="Group 28542" transform="translate(0.771 0.311)">
          <path id="Path_30572" data-name="Path 30572" d="M911.436,181.226c-.009-.1.08.065,0,0Z" transform="translate(-911.435 -181.193)" fill="#2f6bff"/>
        </g>
        <g id="Group_28543" data-name="Group 28543" transform="translate(0 0)">
          <path id="Path_30573" data-name="Path 30573" d="M916.293,186.217a.385.385,0,1,0-.152-.755,5.854,5.854,0,0,1-1.913.052,1.2,1.2,0,0,0,.471-2.111,1.844,1.844,0,0,0-1.258-.186,4.674,4.674,0,0,0-1.578.585,4.616,4.616,0,0,0,.2-1.664,1.826,1.826,0,0,0-.479-1.173,1.265,1.265,0,0,0-1.74.208,1.623,1.623,0,0,0-.208,1.026,5.813,5.813,0,0,1-.557-1.93c-.081-.066-.321-.354-.425-.343a.384.384,0,0,0-.344.425,6.7,6.7,0,0,0,2.184,4.255l.915.695A6.871,6.871,0,0,0,916.293,186.217Zm-5.248-2.378a4.388,4.388,0,0,1-.623-1.506,1.134,1.134,0,0,1,.061-.731c.02-.03.063-.094.277-.119s.272.025.3.05a1.149,1.149,0,0,1,.232.7A4.367,4.367,0,0,1,911.045,183.839Zm2.593,1.008a4.473,4.473,0,0,1-1.616-.246,4.448,4.448,0,0,1,1.511-.619,1.431,1.431,0,0,1,.681.033.293.293,0,0,1,.053.028c.032.022.094.063.119.275S914.439,184.75,913.638,184.847Z" transform="translate(-908.304 -179.925)" fill="#2f6bff"/>
        </g>
      </g>
    </g>
    <g id="Group_28502" data-name="Group 28502" transform="translate(-2930.996 12326.958)">
      <g id="Group_28368" data-name="Group 28368" transform="translate(0 0)">
        <g id="Group_28296" data-name="Group 28296" transform="translate(66.707 69.113)">
          <g id="Group_28289" data-name="Group 28289" transform="translate(1.161)">
            <g id="Group_28288" data-name="Group 28288">
              <g id="Group_28287" data-name="Group 28287">
                <g id="Group_28286" data-name="Group 28286">
                  <g id="Group_28285" data-name="Group 28285">
                    <g id="Group_28284" data-name="Group 28284">
                      <path id="Path_30481" data-name="Path 30481" d="M292.808,340.829c-1.164-1.052-1.835.22-2.613.744.292-.062.676-.11.5.264a2.614,2.614,0,0,1-1.832,1.284,3.24,3.24,0,0,0,.7.924C289.862,344.335,293.065,341.062,292.808,340.829Z" transform="translate(-288.861 -340.425)" fill="#30193b"/>
                    </g>
                  </g>
                </g>
              </g>
            </g>
          </g>
          <g id="Group_28295" data-name="Group 28295" transform="translate(0 0.477)">
            <g id="Group_28294" data-name="Group 28294">
              <g id="Group_28293" data-name="Group 28293">
                <g id="Group_28292" data-name="Group 28292">
                  <g id="Group_28291" data-name="Group 28291">
                    <g id="Group_28290" data-name="Group 28290">
                      <path id="Path_30482" data-name="Path 30482" d="M290.691,341.741c.2-.4.078-.709-.445-.3a10.377,10.377,0,0,1-1.167.793c-.277.116-.8-1.126-.8-1.126l-.741-.134s.711,1.444.868,1.723c.109.193.286.444.3.486A3.108,3.108,0,0,0,290.691,341.741Z" transform="translate(-287.535 -340.972)" fill="#ff97a6"/>
                    </g>
                  </g>
                </g>
              </g>
            </g>
          </g>
        </g>
        <g id="Group_28309" data-name="Group 28309" transform="translate(20.633 59.135)">
          <g id="Group_28302" data-name="Group 28302">
            <g id="Group_28301" data-name="Group 28301">
              <g id="Group_28300" data-name="Group 28300">
                <g id="Group_28299" data-name="Group 28299">
                  <g id="Group_28298" data-name="Group 28298">
                    <g id="Group_28297" data-name="Group 28297">
                      <path id="Path_30483" data-name="Path 30483" d="M234.984,333.773c1.242.279,1.279-1.365,1.6-2.306-.191.24-.457.526-.511.1a3.207,3.207,0,0,1,.739-2.259,2.5,2.5,0,0,0-1-.33C235.444,328.925,234.667,333.7,234.984,333.773Z" transform="translate(-234.91 -328.976)" fill="#30193b"/>
                    </g>
                  </g>
                </g>
              </g>
            </g>
          </g>
          <g id="Group_28308" data-name="Group 28308" transform="translate(1.156 0.261)">
            <g id="Group_28307" data-name="Group 28307">
              <g id="Group_28306" data-name="Group 28306">
                <g id="Group_28305" data-name="Group 28305">
                  <g id="Group_28304" data-name="Group 28304">
                    <g id="Group_28303" data-name="Group 28303">
                      <path id="Path_30484" data-name="Path 30484" d="M236.241,331.6c.054.429.307.6.488-.021a2,2,0,0,1,.454-.821c.291-.476,2.384-.48,2.384-.48l-.708-1.007s-1.14.4-1.4.273c-.179-.087-.443-.18-.477-.2A3.207,3.207,0,0,0,236.241,331.6Z" transform="translate(-236.23 -329.275)" fill="#ff97a6"/>
                    </g>
                  </g>
                </g>
              </g>
            </g>
          </g>
        </g>
        <g id="Group_28312" data-name="Group 28312" transform="translate(52.658 9.338)">
          <g id="Group_28311" data-name="Group 28311">
            <g id="Group_28310" data-name="Group 28310">
              <path id="Path_30485" data-name="Path 30485" d="M272.939,272.219c-2.166-1.962-2.322,3.652,2.436,14.023.514,1.121,2.8-.785,2.139-2.45C275.787,279.472,274.215,273.375,272.939,272.219Z" transform="translate(-271.488 -271.831)" fill="#fc483a"/>
            </g>
          </g>
        </g>
        <g id="Group_28315" data-name="Group 28315" transform="translate(56.711 21.024)">
          <g id="Group_28314" data-name="Group 28314">
            <g id="Group_28313" data-name="Group 28313">
              <path id="Path_30486" data-name="Path 30486" d="M276.117,288.186s7.909,7.346,10.306,8.085a.784.784,0,0,0,.545-.034c1.187-.51,3.656-2.089-.362-5.731a23.911,23.911,0,0,0-8.8-5.265A10.15,10.15,0,0,1,276.117,288.186Z" transform="translate(-276.117 -285.241)" fill="#fc483a"/>
            </g>
          </g>
        </g>
        <g id="Group_28317" data-name="Group 28317" transform="translate(23.635 21.278)">
          <g id="Group_28316" data-name="Group 28316">
            <path id="Path_30487" data-name="Path 30487" d="M238.742,326.027c4.117-.146,20.962-3.632,21.88-6.612,1.3-4.219-.714-21.339-.714-21.339a111.525,111.525,0,0,0,8.695,17.962c5.543,9.094,12.467,19.984,12.705,19.857.045-.024,1.608-.017,1.48-.834-.825-5.242-9.639-27.216-10.638-30.5-.457-1.507-4.72-15.371-6-16.358-7.388-5.708-13.357-.484-13.357-.484-9.489,9.589-.1,29.837-.1,29.837s-9.4,4.212-14.363,6.45Z" transform="translate(-238.338 -285.532)" fill="#6979f8"/>
          </g>
        </g>
        <g id="Group_28319" data-name="Group 28319" transform="translate(34.008 8.819)">
          <g id="Group_28318" data-name="Group 28318">
            <path id="Path_30488" data-name="Path 30488" d="M269.375,271.652c-2.4-.219-8.513-.649-11.409-.261-3.233.433-2.741,6.207-2.741,6.207-.032,3.306-2.44,8.194-3.827,11.91-.928,2.485-1.393,4.5-1.146,5.107.4.383,16.672.57,20.2-1.684-.7-3.943-1.055-8.157-.688-10.064C270.84,277.266,271.622,271.858,269.375,271.652Z" transform="translate(-250.186 -271.235)" fill="#ff5e4d"/>
          </g>
        </g>
        <g id="Group_28330" data-name="Group 28330" transform="translate(48.477 5.56)">
          <g id="Group_28324" data-name="Group 28324" transform="translate(0 1.057)">
            <g id="Group_28323" data-name="Group 28323">
              <g id="Group_28322" data-name="Group 28322">
                <g id="Group_28321" data-name="Group 28321">
                  <g id="Group_28320" data-name="Group 28320">
                    <path id="Path_30489" data-name="Path 30489" d="M267.8,268.709s-1.255,3.152-1.07,3.579a1.149,1.149,0,0,0,1.789.438c.739-.692.794-3.68.794-3.68Z" transform="translate(-266.713 -268.709)" fill="#ff97a6"/>
                  </g>
                </g>
              </g>
            </g>
          </g>
          <g id="Group_28329" data-name="Group 28329" transform="translate(0.183)">
            <g id="Group_28328" data-name="Group 28328">
              <g id="Group_28327" data-name="Group 28327">
                <g id="Group_28326" data-name="Group 28326">
                  <g id="Group_28325" data-name="Group 28325">
                    <path id="Path_30490" data-name="Path 30490" d="M268.027,267.5s-1.037,3.149-1.1,3.558c-.052.315,1.837.959,2.04.583a15.06,15.06,0,0,0,.576-3.8Z" transform="translate(-266.922 -267.496)" fill="#c95d77"/>
                  </g>
                </g>
              </g>
            </g>
          </g>
        </g>
        <g id="Group_28335" data-name="Group 28335" transform="translate(48.509 4.329)">
          <g id="Group_28334" data-name="Group 28334">
            <g id="Group_28333" data-name="Group 28333">
              <g id="Group_28332" data-name="Group 28332">
                <g id="Group_28331" data-name="Group 28331">
                  <path id="Path_30491" data-name="Path 30491" d="M270.68,269.04a7.13,7.13,0,0,0-.029-1.927,1.122,1.122,0,0,0-1.235-1.023,7.2,7.2,0,0,0-2.278.505c-.428.33-.4.993-.382,1.488a3.637,3.637,0,0,0,.526,1.768,2.2,2.2,0,0,0,1.516.62C270.111,270.372,270.463,270,270.68,269.04Z" transform="translate(-266.749 -266.082)" fill="#ff97a6"/>
                </g>
              </g>
            </g>
          </g>
        </g>
        <g id="Group_28337" data-name="Group 28337" transform="translate(43.649 9.096)">
          <g id="Group_28336" data-name="Group 28336">
            <path id="Path_30492" data-name="Path 30492" d="M270.745,271.693c-.3-.04-.678-.06-1.1-.094l-.606-.046a52.975,52.975,0,0,1-.639,10.826c-.913,4.636-7.2,12.4-7.2,12.4s3.966-.144,5.062-.335c2.647-.46,4.682-.906,5.56-1.467-.19-4.733-.475-10.371-.187-12.183C272.128,277.679,273.5,272.057,270.745,271.693Z" transform="translate(-261.198 -271.553)" fill="#fc483a"/>
          </g>
        </g>
        <g id="Group_28340" data-name="Group 28340" transform="translate(30.687 8.771)">
          <g id="Group_28339" data-name="Group 28339">
            <g id="Group_28338" data-name="Group 28338">
              <path id="Path_30493" data-name="Path 30493" d="M262.867,272.115a7.671,7.671,0,0,0-6.147-.5c-2.973,1.068-8.563,3.846-10.164,7.229-1.183,2.5,4.462.325,4.462.325l7.108-3.71S264.1,272.682,262.867,272.115Z" transform="translate(-246.393 -271.18)" fill="#ff5e4d"/>
            </g>
          </g>
        </g>
        <g id="Group_28343" data-name="Group 28343" transform="translate(20.102 13.213)">
          <g id="Group_28342" data-name="Group 28342">
            <g id="Group_28341" data-name="Group 28341">
              <path id="Path_30494" data-name="Path 30494" d="M247.192,276.825c-2.7.632-13.956,6.8-12.808,10.807.426,1.492,2.508,1.664,2.508,1.664l17.4-12.276S252.917,275.487,247.192,276.825Z" transform="translate(-234.302 -276.277)" fill="#ff5e4d"/>
            </g>
          </g>
        </g>
        <g id="Group_28348" data-name="Group 28348" transform="translate(68.232 30.492)">
          <g id="Group_28347" data-name="Group 28347">
            <g id="Group_28346" data-name="Group 28346">
              <g id="Group_28345" data-name="Group 28345">
                <g id="Group_28344" data-name="Group 28344">
                  <path id="Path_30495" data-name="Path 30495" d="M289.3,296.546a.3.3,0,0,0,.067.317c.207.187.694.628,1.081.984,0,0,.6.539,1,.39,0,0,.094-.136-.123-.236,0,0,.6.156.728-.026s-.111-.357-.111-.357a.2.2,0,0,0,.129-.236,2.767,2.767,0,0,0-1.236-.863s.442.1.433-.075-.87-.412-1.144-.3a2.323,2.323,0,0,1-.49-.036C289.525,296.078,289.367,296.337,289.3,296.546Z" transform="translate(-289.277 -296.106)" fill="#ffa9ba"/>
                </g>
              </g>
            </g>
          </g>
        </g>
        <g id="Group_28357" data-name="Group 28357" transform="translate(2.232 26.257)">
          <g id="Group_28351" data-name="Group 28351" transform="translate(13.571 5.207)">
            <g id="Group_28349" data-name="Group 28349">
              <path id="Path_30496" data-name="Path 30496" d="M230.548,298.1a.609.609,0,1,1-.278-.812A.61.61,0,0,1,230.548,298.1Z" transform="translate(-229.392 -297.222)" fill="#30193b"/>
            </g>
            <g id="Group_28350" data-name="Group 28350" transform="translate(5.553 2.713)">
              <path id="Path_30497" data-name="Path 30497" d="M236.891,301.209a.612.612,0,0,1-.816.277.607.607,0,1,1,.816-.277Z" transform="translate(-235.734 -300.335)" fill="#30193b"/>
            </g>
          </g>
          <g id="Group_28352" data-name="Group 28352" transform="translate(0 0.018)">
            <path id="Path_35836" data-name="Path 35836" d="M0,0,22.106-.036l-.026,15.759-22.106.036Z" transform="matrix(0.898, 0.441, -0.441, 0.898, 6.967, 0)" fill="#fc483a"/>
          </g>
          <g id="Group_28356" data-name="Group 28356" transform="translate(11.936)">
            <g id="Group_28353" data-name="Group 28353" transform="translate(0 4.409)">
              <path id="Path_30498" data-name="Path 30498" d="M228.682,297.179a.609.609,0,1,1-.278-.811A.6.6,0,0,1,228.682,297.179Z" transform="translate(-227.525 -296.306)" fill="#30193b"/>
            </g>
            <g id="Group_28354" data-name="Group 28354" transform="translate(5.553 7.121)">
              <path id="Path_30499" data-name="Path 30499" d="M235.024,300.293a.609.609,0,1,1-.278-.812A.61.61,0,0,1,235.024,300.293Z" transform="translate(-233.867 -299.419)" fill="#30193b"/>
            </g>
            <g id="Group_28355" data-name="Group 28355" transform="translate(0.383)">
              <path id="Path_30500" data-name="Path 30500" d="M233.969,299.085l-.454-.222,1.5-3.039a2.82,2.82,0,0,0-1.3-3.783,2.846,2.846,0,0,0-3.8,1.292l-1.5,3.04-.453-.222,1.5-3.04a3.343,3.343,0,1,1,6.007,2.935Z" transform="translate(-227.962 -291.247)" fill="#30193b"/>
            </g>
          </g>
        </g>
        <g id="Group_28363" data-name="Group 28363" transform="translate(0 22.725)">
          <g id="Group_28358" data-name="Group 28358" transform="translate(0 0)">
            <path id="Path_35837" data-name="Path 35837" d="M0,0,12.111-.02l-.026,15.982-12.111.02Z" transform="translate(14.283 0) rotate(63.253)" fill="#ff5e4d"/>
          </g>
          <g id="Group_28362" data-name="Group 28362" transform="translate(13.993 2.535)">
            <g id="Group_28359" data-name="Group 28359" transform="translate(0 1.171)">
              <path id="Path_30501" data-name="Path 30501" d="M227.977,292.293a.448.448,0,1,1,.2-.6A.45.45,0,0,1,227.977,292.293Z" transform="translate(-227.325 -291.446)" fill="#ff5e4d"/>
            </g>
            <g id="Group_28360" data-name="Group 28360" transform="translate(2.054 5.227)">
              <path id="Path_30502" data-name="Path 30502" d="M230.323,296.948a.452.452,0,0,1-.6-.2.446.446,0,0,1,.2-.6.448.448,0,1,1,.405.8Z" transform="translate(-229.671 -296.101)" fill="#ff5e4d"/>
            </g>
            <g id="Group_28361" data-name="Group 28361" transform="translate(0.336)">
              <path id="Path_30503" data-name="Path 30503" d="M229.99,296l-.228-.45L232,294.428a2.015,2.015,0,0,0,.9-2.712,2.036,2.036,0,0,0-2.725-.895l-2.24,1.124-.228-.45,2.24-1.124a2.545,2.545,0,0,1,3.4,1.118,2.517,2.517,0,0,1-1.123,3.388Z" transform="translate(-227.709 -290.102)" fill="#ff5e4d"/>
            </g>
          </g>
        </g>
        <g id="Group_28365" data-name="Group 28365" transform="translate(18.821 25.177)">
          <g id="Group_28364" data-name="Group 28364">
            <path id="Path_30504" data-name="Path 30504" d="M234.836,290.063a.3.3,0,0,0-.325-.018c-.235.151-.791.5-1.236.782a.889.889,0,0,0-.434.583.306.306,0,0,0,.059.2c.149.22.531.766.683.778.191.016.67-.48.878-.837,0,0-.209.4-.04.436s.627-.728.589-1.021a2.305,2.305,0,0,1,.162-.462C235.23,290.406,235.021,290.188,234.836,290.063Z" transform="translate(-232.839 -290.007)" fill="#ffa9ba"/>
          </g>
        </g>
        <g id="Group_28366" data-name="Group 28366" transform="translate(46.611)">
          <path id="Path_30505" data-name="Path 30505" d="M270.811,269.138a4.529,4.529,0,0,0-.353-1.589c-.087.817-.2,1.942-1.459,2.119a1.911,1.911,0,0,1-2.331-1.145,7.116,7.116,0,0,1-.158-1.9c.031-.239.325-.792.818-.757a6.041,6.041,0,0,0,3.042-.356,2.61,2.61,0,0,0,1.259-1.641,3,3,0,0,0-.2-2.566c-.138-.25-.485-.268-.447.021.248,1.682-2.17.774-2.733.448a2.9,2.9,0,0,0-.98-.52,1.817,1.817,0,0,0-1.3.4,2.126,2.126,0,0,0-.833,2.64c-.331.07-.547.342-.547.958a4.819,4.819,0,0,0,1.231,3.026,7.138,7.138,0,0,0-.162,1.209,1.223,1.223,0,0,0,.095.752A4.657,4.657,0,0,0,268,271.428c.578.134,1.771.24,2.251-.235A2.314,2.314,0,0,0,270.811,269.138Z" transform="translate(-264.581 -261.115)" fill="#3b2b5b"/>
        </g>
        <g id="Group_28367" data-name="Group 28367" transform="translate(46.444 0.006)">
          <path id="Path_30506" data-name="Path 30506" d="M265.788,268.276a5.92,5.92,0,0,1-1.081-1.637,3.464,3.464,0,0,1-.267-1.982.1.1,0,0,1,.01-.028,1.041,1.041,0,0,1,.235-.333.6.6,0,0,1,.428-.17l-.165.228a2.944,2.944,0,0,1-.186-1.13,2.04,2.04,0,0,1,.36-1.111,2.25,2.25,0,0,1,.918-.709,2.48,2.48,0,0,1,1.119-.281,1.849,1.849,0,0,1,1.073.428,3.19,3.19,0,0,0,.913.505,3.153,3.153,0,0,0,1.026.206,1.044,1.044,0,0,0,.5-.113.576.576,0,0,0,.289-.417.591.591,0,0,1-.25.477,1.143,1.143,0,0,1-.531.181,2.8,2.8,0,0,1-1.1-.124,3.43,3.43,0,0,1-1.007-.476,1.733,1.733,0,0,0-.918-.337,2.17,2.17,0,0,0-.955.268,1.882,1.882,0,0,0-.766.61,2.12,2.12,0,0,0-.169,1.9l0,.009a.166.166,0,0,1-.105.212.17.17,0,0,1-.062.009.268.268,0,0,0-.19.078.736.736,0,0,0-.161.218l.009-.028a3.079,3.079,0,0,0-.064.917,4.4,4.4,0,0,0,.207.921A6.955,6.955,0,0,0,265.788,268.276Z" transform="translate(-264.39 -261.122)" fill="#7f65c1"/>
        </g>
      </g>
      <g id="Group_28501" data-name="Group 28501" transform="translate(53.009 1.364)">
        <g id="Group_28385" data-name="Group 28385" transform="translate(29.328 0.156)">
          <path id="Path_30515" data-name="Path 30515" d="M327.72,267.464c-.3-.4-.808-.741-.928-1.21-.148-.584.06-.956-.355-1.5a1.66,1.66,0,0,0-2.157-.473c-1.211-2.349-6.445-1.618-6.911.952a7.784,7.784,0,0,0-7.88,2.212c-1.682,1.793-2.684,4.511-1.58,6.8a2.748,2.748,0,0,0-1.769,4.409,3.667,3.667,0,0,0,.841,5.2c2.051,1.637,5.2,1.76,7.714,1.691,2.541-.069,5.479-.625,7.47-2.321a13.227,13.227,0,0,0,2.5-3.724c.846-1.495,1.686-3,2.412-4.557A5.721,5.721,0,0,0,327.72,267.464Z" transform="translate(-305.387 -262.86)" fill="#3b2b5b"/>
        </g>
        <g id="Group_28396" data-name="Group 28396" transform="translate(0 46.504)">
          <g id="Group_28390" data-name="Group 28390">
            <g id="Group_28389" data-name="Group 28389">
              <g id="Group_28388" data-name="Group 28388">
                <g id="Group_28387" data-name="Group 28387">
                  <g id="Group_28386" data-name="Group 28386">
                    <path id="Path_30516" data-name="Path 30516" d="M271.921,320.118c.482.3,1.4-.99,1.842-1.763-.215.18-.506.388-.494,0a2.725,2.725,0,0,1,1.024-1.861,2.517,2.517,0,0,0-.884-.45C273.065,315.943,271.66,319.953,271.921,320.118Z" transform="translate(-271.889 -316.046)" fill="#fc483a"/>
                  </g>
                </g>
              </g>
            </g>
          </g>
          <g id="Group_28395" data-name="Group 28395" transform="translate(1.38 0.452)">
            <g id="Group_28394" data-name="Group 28394">
              <g id="Group_28393" data-name="Group 28393">
                <g id="Group_28392" data-name="Group 28392">
                  <g id="Group_28391" data-name="Group 28391">
                    <path id="Path_30517" data-name="Path 30517" d="M273.466,318.425c-.012.384.2.571.461.06a4.2,4.2,0,0,1,.6-.867.792.792,0,0,1,.564-.164l.15-.43s-.679-.4-.749-.46A2.725,2.725,0,0,0,273.466,318.425Z" transform="translate(-273.465 -316.564)" fill="#ff97a6"/>
                  </g>
                </g>
              </g>
            </g>
          </g>
        </g>
        <g id="Group_28401" data-name="Group 28401" transform="translate(2.82 25.03)">
          <g id="Group_28400" data-name="Group 28400">
            <g id="Group_28399" data-name="Group 28399">
              <g id="Group_28398" data-name="Group 28398">
                <g id="Group_28397" data-name="Group 28397">
                  <path id="Path_30518" data-name="Path 30518" d="M303.775,293.427c-3.971,2.847-6.024,20.262-6.024,20.262s-22.547-.321-22.458.025l-.183.511c.027.106,21.69,8.665,27.948,4.728,3.639-2.288,6.7-21.037,10.089-26.217C314.714,290.341,306.395,291.549,303.775,293.427Z" transform="translate(-275.11 -291.404)" fill="#ff97a6"/>
                </g>
              </g>
            </g>
          </g>
        </g>
        <g id="Group_28412" data-name="Group 28412" transform="translate(52.803 71.306)">
          <g id="Group_28406" data-name="Group 28406" transform="translate(0.446)">
            <g id="Group_28405" data-name="Group 28405">
              <g id="Group_28404" data-name="Group 28404">
                <g id="Group_28403" data-name="Group 28403">
                  <g id="Group_28402" data-name="Group 28402">
                    <path id="Path_30519" data-name="Path 30519" d="M336.507,344.654c-.26-.448-1.7.226-2.456.7.273-.059.629-.107.439.228a2.745,2.745,0,0,1-1.78,1.169,2.5,2.5,0,0,0,.572.809C333.538,347.815,336.662,344.92,336.507,344.654Z" transform="translate(-332.71 -344.507)" fill="#fc483a"/>
                  </g>
                </g>
              </g>
            </g>
          </g>
          <g id="Group_28411" data-name="Group 28411" transform="translate(0 0.657)">
            <g id="Group_28410" data-name="Group 28410">
              <g id="Group_28409" data-name="Group 28409">
                <g id="Group_28408" data-name="Group 28408">
                  <g id="Group_28407" data-name="Group 28407">
                    <path id="Path_30520" data-name="Path 30520" d="M334.426,345.681c.191-.335.09-.6-.379-.268a4.241,4.241,0,0,1-.938.488.792.792,0,0,1-.575-.118l-.334.311s.414.668.446.756A2.745,2.745,0,0,0,334.426,345.681Z" transform="translate(-332.2 -345.261)" fill="#ff97a6"/>
                  </g>
                </g>
              </g>
            </g>
          </g>
        </g>
        <g id="Group_28417" data-name="Group 28417" transform="translate(29.894 23.912)">
          <g id="Group_28416" data-name="Group 28416">
            <g id="Group_28415" data-name="Group 28415">
              <g id="Group_28414" data-name="Group 28414">
                <g id="Group_28413" data-name="Group 28413">
                  <path id="Path_30521" data-name="Path 30521" d="M307.9,300.7c1.486,4.641,13.045,13.309,13.045,13.309l7.388,23.431a16.756,16.756,0,0,0,.605,1.564,2.112,2.112,0,0,0,.458-.176s.506-20.045-1.931-27.341c-.868-2.6-9.537-14.393-9.537-14.393s-.518-5.182-1.125-5.742c-1.276.066-5.461-2.923-9.1.175C304.174,294.541,307.226,298.582,307.9,300.7Z" transform="translate(-306.034 -290.121)" fill="#ff97a6"/>
                </g>
              </g>
            </g>
          </g>
        </g>
        <g id="Group_28419" data-name="Group 28419" transform="translate(19.578 23.245)">
          <g id="Group_28418" data-name="Group 28418">
            <path id="Path_30522" data-name="Path 30522" d="M307.394,289.843s-4.146,2.971-5.844,7.033c-1.957,4.679-3.782,8.953-7.3,13.048,0,0,5.129,2.131,6.685,2.819.292.129,3.064-12.283,3.064-12.283s-1.381,12.693-.979,12.785c2.31.528,3.773,1.151,9.535-1.123,9.491-3.746,12.036-3.365,12.036-3.365l-5.43-13.008-.856-6.395Z" transform="translate(-294.251 -289.355)" fill="#6979f8"/>
          </g>
        </g>
        <g id="Group_28421" data-name="Group 28421" transform="translate(37.918 23.245)">
          <g id="Group_28420" data-name="Group 28420">
            <path id="Path_30523" data-name="Path 30523" d="M316.6,311.566s3.728-1.385,5.007-1.727c1.375-.369,5.593-1.081,5.593-1.081l-4.4-10.54a20.306,20.306,0,0,1-1.386-5.118l-.5-3.745-5.715,1.454a33.138,33.138,0,0,1,2.524,10.12A25.74,25.74,0,0,1,316.6,311.566Z" transform="translate(-315.199 -289.355)" fill="#5165ff"/>
          </g>
        </g>
        <g id="Group_28423" data-name="Group 28423" transform="translate(48.36 12.594)">
          <g id="Group_28422" data-name="Group 28422">
            <path id="Path_30524" data-name="Path 30524" d="M329.182,277.53c-1.393-1.812-3.211,2.669-1.08,11.236a1.874,1.874,0,0,0,1.91,1.562l1.132-1.143a7.684,7.684,0,0,0-.082-2.464C330.374,283.191,330,278.6,329.182,277.53Z" transform="translate(-327.125 -277.132)" fill="#e5281f"/>
          </g>
        </g>
        <g id="Group_28427" data-name="Group 28427" transform="translate(32.285 9.046)">
          <g id="Group_28426" data-name="Group 28426">
            <g id="Group_28425" data-name="Group 28425">
              <g id="Group_28424" data-name="Group 28424">
                <path id="Path_30525" data-name="Path 30525" d="M317.694,273.081c1.85.176,6.066,2.166,6.5,2.356,1.822.8,3.22,1.385,3.151,4.24-.04,1.647-1.338,3.034-1.768,3.9a79.412,79.412,0,0,1-4.862,8.2,13.664,13.664,0,0,1-5.94-1.576c-4.981-2.324-6.013-2.115-6.013-2.115s.518-4.387,4.494-11.823C314.3,274.321,315.518,272.875,317.694,273.081Z" transform="translate(-308.765 -273.061)" fill="#fc483a"/>
              </g>
            </g>
          </g>
        </g>
        <g id="Group_28429" data-name="Group 28429" transform="translate(36.329 9.342)">
          <g id="Group_28428" data-name="Group 28428">
            <path id="Path_30526" data-name="Path 30526" d="M318.247,273.614c-2.23-1.038-4.128,1.644-4.857,9.764a3.819,3.819,0,0,0,1.489,2.9,14.405,14.405,0,0,0,2.732,1.417s0-2.764-.126-4.044A40.6,40.6,0,0,1,318.247,273.614Z" transform="translate(-313.384 -273.401)" fill="#ff5e4d"/>
          </g>
        </g>
        <g id="Group_28433" data-name="Group 28433" transform="translate(38.298 11.046)">
          <g id="Group_28432" data-name="Group 28432">
            <g id="Group_28431" data-name="Group 28431">
              <g id="Group_28430" data-name="Group 28430">
                <path id="Path_30527" data-name="Path 30527" d="M324.219,275.356c1.823.8,3.932,1.04,4.208,3.907.158,1.64-1.562,3.744-1.992,4.605a79.417,79.417,0,0,1-4.862,8.2,16.959,16.959,0,0,1-2.973-.324c-.754-.285-2.967-1.252-2.967-1.252a16.813,16.813,0,0,0,6.955-5.516C325.11,281.111,324.219,275.356,324.219,275.356Z" transform="translate(-315.633 -275.356)" fill="#e5281f"/>
              </g>
            </g>
          </g>
        </g>
        <g id="Group_28472" data-name="Group 28472" transform="translate(52.803 22.83)">
          <g id="Group_28435" data-name="Group 28435" transform="translate(37.488 46.323)">
            <g id="Group_28434" data-name="Group 28434">
              <path id="Path_30528" data-name="Path 30528" d="M375.018,345.18a3.158,3.158,0,1,0,3.158-3.143A3.15,3.15,0,0,0,375.018,345.18Z" transform="translate(-375.018 -342.037)" fill="#f54b24"/>
            </g>
          </g>
          <g id="Group_28437" data-name="Group 28437" transform="translate(12.212 11.107)">
            <g id="Group_28436" data-name="Group 28436">
              <path id="Path_30529" data-name="Path 30529" d="M346.661,328.78l-.513-26.624a.517.517,0,0,1,.2-.42.528.528,0,0,1,.459-.094l36.758,9.775a.522.522,0,0,1,.389.5V328.77a.522.522,0,0,1-.524.521H347.185A.522.522,0,0,1,346.661,328.78Zm36.245-16.46-35.7-9.492.489,25.419h35.207Z" transform="translate(-346.148 -301.625)" fill="#666"/>
            </g>
          </g>
          <g id="Group_28439" data-name="Group 28439" transform="translate(10.801 37.731)">
            <g id="Group_28438" data-name="Group 28438">
              <path id="Path_30530" data-name="Path 30530" d="M346.346,340.441h34.271a.522.522,0,1,0,0-1.043H346.346a.751.751,0,0,1-.615-.314.742.742,0,0,1-.1-.681l1.855-5.54a.524.524,0,0,0-.995-.329l-1.855,5.541a1.8,1.8,0,0,0,1.714,2.367Z" transform="translate(-344.537 -332.176)" fill="#666"/>
            </g>
          </g>
          <g id="Group_28441" data-name="Group 28441" transform="translate(39.75 45.449)">
            <g id="Group_28440" data-name="Group 28440">
              <path id="Path_30531" data-name="Path 30531" d="M382.738,341.033h-4.93a.23.23,0,0,0-.206.248v4.328a.241.241,0,0,0,.159.242c.627.164,3,.4,5.157-4.451C382.992,341.235,382.894,341.033,382.738,341.033Z" transform="translate(-377.602 -341.033)" fill="#c4c4c4"/>
            </g>
          </g>
          <g id="Group_28443" data-name="Group 28443" transform="translate(40.051 48.875)">
            <g id="Group_28442" data-name="Group 28442">
              <path id="Path_30532" data-name="Path 30532" d="M377.946,345.557a.594.594,0,1,0,.594-.592A.593.593,0,0,0,377.946,345.557Z" transform="translate(-377.946 -344.965)" fill="#f54b24"/>
            </g>
          </g>
          <g id="Group_28445" data-name="Group 28445" transform="translate(12.922 46.323)">
            <g id="Group_28444" data-name="Group 28444">
              <path id="Path_30533" data-name="Path 30533" d="M346.959,345.18a3.158,3.158,0,1,0,3.158-3.143A3.151,3.151,0,0,0,346.959,345.18Z" transform="translate(-346.959 -342.037)" fill="#f54b24"/>
            </g>
          </g>
          <g id="Group_28447" data-name="Group 28447" transform="translate(15.185 45.449)">
            <g id="Group_28446" data-name="Group 28446">
              <path id="Path_30534" data-name="Path 30534" d="M354.679,341.033H349.75a.23.23,0,0,0-.206.248v4.328a.242.242,0,0,0,.158.242c.628.164,3,.4,5.158-4.451C354.934,341.235,354.836,341.033,354.679,341.033Z" transform="translate(-349.544 -341.033)" fill="#c4c4c4"/>
            </g>
          </g>
          <g id="Group_28449" data-name="Group 28449" transform="translate(15.485 48.875)">
            <g id="Group_28448" data-name="Group 28448">
              <path id="Path_30535" data-name="Path 30535" d="M349.887,345.557a.594.594,0,1,0,.594-.592A.593.593,0,0,0,349.887,345.557Z" transform="translate(-349.887 -344.965)" fill="#f54b24"/>
            </g>
          </g>
          <g id="Group_28451" data-name="Group 28451" transform="translate(44.633 20.363)">
            <g id="Group_28450" data-name="Group 28450">
              <path id="Path_30536" data-name="Path 30536" d="M383.493,330.319a.314.314,0,0,0,.314-.313V312.559a.314.314,0,0,0-.629,0v17.448A.314.314,0,0,0,383.493,330.319Z" transform="translate(-383.179 -312.246)" fill="#666"/>
            </g>
          </g>
          <g id="Group_28453" data-name="Group 28453" transform="translate(39.264 18.758)">
            <g id="Group_28452" data-name="Group 28452">
              <path id="Path_30537" data-name="Path 30537" d="M377.362,330.083a.314.314,0,0,0,.314-.313V310.717a.315.315,0,0,0-.629,0V329.77A.314.314,0,0,0,377.362,330.083Z" transform="translate(-377.047 -310.404)" fill="#666"/>
            </g>
          </g>
          <g id="Group_28455" data-name="Group 28455" transform="translate(33.896 17.47)">
            <g id="Group_28454" data-name="Group 28454">
              <path id="Path_30538" data-name="Path 30538" d="M371.23,329.893a.314.314,0,0,0,.314-.313V309.24a.314.314,0,0,0-.629,0v20.34A.314.314,0,0,0,371.23,329.893Z" transform="translate(-370.916 -308.927)" fill="#666"/>
            </g>
          </g>
          <g id="Group_28457" data-name="Group 28457" transform="translate(28.529 16.183)">
            <g id="Group_28456" data-name="Group 28456">
              <path id="Path_30539" data-name="Path 30539" d="M365.1,329.7a.314.314,0,0,0,.314-.313V307.763a.314.314,0,0,0-.629,0V329.39A.314.314,0,0,0,365.1,329.7Z" transform="translate(-364.785 -307.45)" fill="#666"/>
            </g>
          </g>
          <g id="Group_28459" data-name="Group 28459" transform="translate(23.16 14.171)">
            <g id="Group_28458" data-name="Group 28458">
              <path id="Path_30540" data-name="Path 30540" d="M358.967,329.406a.314.314,0,0,0,.314-.313V305.455a.314.314,0,0,0-.629,0v23.638A.314.314,0,0,0,358.967,329.406Z" transform="translate(-358.653 -305.141)" fill="#666"/>
            </g>
          </g>
          <g id="Group_28461" data-name="Group 28461" transform="translate(17.792 13.1)">
            <g id="Group_28460" data-name="Group 28460">
              <path id="Path_30541" data-name="Path 30541" d="M352.836,329.248a.314.314,0,0,0,.314-.313v-24.71a.314.314,0,0,0-.629,0v24.71A.314.314,0,0,0,352.836,329.248Z" transform="translate(-352.522 -303.912)" fill="#666"/>
            </g>
          </g>
          <g id="Group_28463" data-name="Group 28463" transform="translate(12.548 17.919)">
            <g id="Group_28462" data-name="Group 28462">
              <path id="Path_30542" data-name="Path 30542" d="M383.478,317.336a.313.313,0,0,0,.061-.62l-36.631-7.269a.313.313,0,1,0-.123.613l36.631,7.269A.385.385,0,0,0,383.478,317.336Z" transform="translate(-346.532 -309.441)" fill="#666"/>
            </g>
          </g>
          <g id="Group_28465" data-name="Group 28465" transform="translate(12.693 25.455)">
            <g id="Group_28464" data-name="Group 28464">
              <path id="Path_30543" data-name="Path 30543" d="M383.5,322.347a.313.313,0,0,0,.031-.624l-36.485-3.631a.313.313,0,1,0-.062.622l36.485,3.631A.189.189,0,0,0,383.5,322.347Z" transform="translate(-346.698 -318.09)" fill="#666"/>
            </g>
          </g>
          <g id="Group_28467" data-name="Group 28467" transform="translate(12.843 32.066)">
            <g id="Group_28466" data-name="Group 28466">
              <path id="Path_30544" data-name="Path 30544" d="M383.52,327.944a.313.313,0,0,0,.014-.626L347.2,325.677a.309.309,0,0,0-.328.3.313.313,0,0,0,.3.327l36.335,1.642Z" transform="translate(-346.87 -325.676)" fill="#666"/>
            </g>
          </g>
          <g id="Group_28469" data-name="Group 28469" transform="translate(3.065 1.366)">
            <g id="Group_28468" data-name="Group 28468">
              <path id="Path_30545" data-name="Path 30545" d="M345.413,303.415a.523.523,0,0,0,.524-.522v-8.7a.52.52,0,0,0-.35-.491l-9.188-3.221a.522.522,0,1,0-.348.984l8.838,3.1v8.334A.523.523,0,0,0,345.413,303.415Z" transform="translate(-335.701 -290.447)" fill="#666"/>
            </g>
          </g>
          <g id="Group_28471" data-name="Group 28471">
            <g id="Group_28470" data-name="Group 28470">
              <path id="Path_30546" data-name="Path 30546" d="M339.683,293.28a1.147,1.147,0,0,0,.365-2.236l-6.33-2.105a1.148,1.148,0,1,0-.73,2.177l6.33,2.1A1.136,1.136,0,0,0,339.683,293.28Z" transform="translate(-332.2 -288.879)" fill="#f54b24"/>
            </g>
          </g>
        </g>
        <g id="Group_28476" data-name="Group 28476" transform="translate(52.137 22.63)">
          <g id="Group_28475" data-name="Group 28475">
            <g id="Group_28474" data-name="Group 28474">
              <g id="Group_28473" data-name="Group 28473">
                <path id="Path_30547" data-name="Path 30547" d="M331.468,291.212c.043.32.761.03,1.633-1.311.427-.657,1.974-.371,1.839-.587a2.171,2.171,0,0,0-1.358-.664,2.854,2.854,0,0,0-1.37.365A2.346,2.346,0,0,0,331.468,291.212Z" transform="translate(-331.44 -288.65)" fill="#ff9fad"/>
              </g>
            </g>
          </g>
        </g>
        <g id="Group_28478" data-name="Group 28478" transform="translate(39.141 19.319)">
          <g id="Group_28477" data-name="Group 28477">
            <path id="Path_30548" data-name="Path 30548" d="M316.6,288.361s8.6,5.169,11.385,5.265a.9.9,0,0,0,.58-.191c1.147-.878,3.4-3.253-1.9-5.954-5.982-3.052-9.224-2.61-9.224-2.61S317.712,285.466,316.6,288.361Z" transform="translate(-316.596 -284.849)" fill="#ff5e4d"/>
          </g>
        </g>
        <g id="Group_28489" data-name="Group 28489" transform="translate(45.046 6.016)">
          <g id="Group_28483" data-name="Group 28483" transform="translate(0 1.104)">
            <g id="Group_28482" data-name="Group 28482">
              <g id="Group_28481" data-name="Group 28481">
                <g id="Group_28480" data-name="Group 28480">
                  <g id="Group_28479" data-name="Group 28479">
                    <path id="Path_30549" data-name="Path 30549" d="M325.025,270.851a26.716,26.716,0,0,0-1.685,3.73c.025.451.471,1.2,1.18.493s1.509-3.84,1.509-3.84Z" transform="translate(-323.341 -270.851)" fill="#ff97a6"/>
                  </g>
                </g>
              </g>
            </g>
          </g>
          <g id="Group_28488" data-name="Group 28488" transform="translate(0.386)">
            <g id="Group_28487" data-name="Group 28487">
              <g id="Group_28486" data-name="Group 28486">
                <g id="Group_28485" data-name="Group 28485">
                  <g id="Group_28484" data-name="Group 28484">
                    <path id="Path_30550" data-name="Path 30550" d="M325.493,269.584s-1.55,3.28-1.7,3.706c-.118.329,1.082,1.04,1.325.651a25.881,25.881,0,0,0,1.384-3.975Z" transform="translate(-323.782 -269.584)" fill="#c95d77"/>
                  </g>
                </g>
              </g>
            </g>
          </g>
        </g>
        <g id="Group_28494" data-name="Group 28494" transform="translate(45.173 4.822)">
          <g id="Group_28493" data-name="Group 28493">
            <g id="Group_28492" data-name="Group 28492">
              <g id="Group_28491" data-name="Group 28491">
                <g id="Group_28490" data-name="Group 28490">
                  <path id="Path_30551" data-name="Path 30551" d="M327.6,271.228a7.082,7.082,0,0,0-.014-1.963,1.159,1.159,0,0,0-1.288-1.043,7.774,7.774,0,0,0-2.4.513c-.453.336-.424,1.012-.414,1.515a3.609,3.609,0,0,0,.538,1.8,2.325,2.325,0,0,0,1.586.633C326.992,272.585,327.365,272.209,327.6,271.228Z" transform="translate(-323.485 -268.214)" fill="#ff9fad"/>
                </g>
              </g>
            </g>
          </g>
        </g>
        <g id="Group_28496" data-name="Group 28496" transform="translate(43.838 3.587)">
          <g id="Group_28495" data-name="Group 28495">
            <path id="Path_30552" data-name="Path 30552" d="M327.192,268.131s-1.39,3.994-5.231,1.941a12.544,12.544,0,0,1,1.755-2.717C324.725,266.248,328.169,266.934,327.192,268.131Z" transform="translate(-321.961 -266.796)" fill="#3b2b5b"/>
          </g>
        </g>
        <g id="Group_28498" data-name="Group 28498" transform="translate(48.398 5.04)">
          <g id="Group_28497" data-name="Group 28497">
            <path id="Path_30553" data-name="Path 30553" d="M327.169,268.631a4.409,4.409,0,0,0,1.556,2.278s.7-1.692-.26-2.2S327.169,268.631,327.169,268.631Z" transform="translate(-327.169 -268.465)" fill="#3b2b5b"/>
          </g>
        </g>
        <g id="Group_28499" data-name="Group 28499" transform="translate(44.429 10.013)">
          <path id="Path_30554" data-name="Path 30554" d="M322.636,274.171l1.4.533,1.057.5s-.615,3.8-1.268,3.727C322.644,278.792,322.636,274.171,322.636,274.171Z" transform="translate(-322.636 -274.171)" fill="#ff97a6"/>
        </g>
        <g id="Group_28500" data-name="Group 28500" transform="translate(29.234)">
          <path id="Path_30555" data-name="Path 30555" d="M326.778,266.231c-.1-.319-.063-.665-.139-.979a1.472,1.472,0,0,0-.546-.777,1.541,1.541,0,0,0-1.773-.132.1.1,0,0,1-.136-.024l-.005-.009,0-.005a2.559,2.559,0,0,0-1.585-1.144,5.04,5.04,0,0,0-3.908.585,2.392,2.392,0,0,0-1.115,1.5.218.218,0,0,1-.254.174l-.032-.008a6.658,6.658,0,0,0-3.826-.07,8.139,8.139,0,0,0-3.386,1.844,7.6,7.6,0,0,0-2.112,3.2,4.994,4.994,0,0,0,.129,3.733.213.213,0,0,1-.1.285.222.222,0,0,1-.06.019,2.632,2.632,0,0,0-1.217.5,2.485,2.485,0,0,0-.8,1.047,2.687,2.687,0,0,0,.327,2.571.138.138,0,0,1-.005.168,3.178,3.178,0,0,0-.658,1.235,3.251,3.251,0,0,0-.053,1.414,4.276,4.276,0,0,0,1.445,2.459,4.217,4.217,0,0,1-1.6-2.43,3.445,3.445,0,0,1-.011-1.5,3.25,3.25,0,0,1,.662-1.359l-.005.168a3.1,3.1,0,0,1-.586-1.369,2.9,2.9,0,0,1,2.434-3.332l-.162.3a5.439,5.439,0,0,1-.186-4.06,8.085,8.085,0,0,1,2.217-3.43,8.508,8.508,0,0,1,3.606-1.928,7.1,7.1,0,0,1,4.089.114l-.286.166a2.722,2.722,0,0,1,1.332-1.759,5.374,5.374,0,0,1,4.2-.518,2.708,2.708,0,0,1,1.681,1.319l-.144-.038a1.534,1.534,0,0,1,1.019-.2,1.843,1.843,0,0,1,.932.417,1.509,1.509,0,0,1,.536.85C326.757,265.574,326.7,265.906,326.778,266.231Z" transform="translate(-305.28 -262.681)" fill="#7f65c1"/>
        </g>
      </g>
    </g>
  </g>
</svg>
