<svg xmlns="http://www.w3.org/2000/svg" width="32" height="16" viewBox="0 0 32 16">
  <g id="Group_30170" data-name="Group 30170" transform="translate(8974 11163)">
    <path id="Subtraction_119" data-name="Subtraction 119" d="M34,16H6a2,2,0,0,1-2-2V12A4,4,0,1,0,4,4V2A2,2,0,0,1,6,0H34a2,2,0,0,1,2,2V4a4,4,0,0,0,0,8v2A2,2,0,0,1,34,16Z" transform="translate(-8978 -11163)" fill="#f54b24"/>
    <rect id="Rectangle_17481" data-name="Rectangle 17481" width="1" height="2" transform="translate(-8966 -11163)" fill="#fff"/>
    <rect id="Rectangle_17482" data-name="Rectangle 17482" width="1" height="2" transform="translate(-8966 -11160)" fill="#fff"/>
    <rect id="Rectangle_17483" data-name="Rectangle 17483" width="1" height="2" transform="translate(-8966 -11157)" fill="#fff"/>
    <rect id="Rectangle_17484" data-name="Rectangle 17484" width="1" height="2" transform="translate(-8966 -11154)" fill="#fff"/>
    <rect id="Rectangle_17485" data-name="Rectangle 17485" width="1" height="2" transform="translate(-8966 -11151)" fill="#fff"/>
    <rect id="Rectangle_17486" data-name="Rectangle 17486" width="1" height="1" transform="translate(-8966 -11148)" fill="#fff"/>
    <text id="_" data-name="%" transform="translate(-8955 -11150)" fill="#fff" font-size="14" font-family="Rockwell-Bold, Rockwell" font-weight="700"><tspan x="-6.487" y="0">%</tspan></text>
  </g>
</svg>
